<svg width="17" height="18" viewBox="0 0 17 18" fill="none" xmlns="http://www.w3.org/2000/svg">
<path fill-rule="evenodd" clip-rule="evenodd" d="M2.27588 2.25109C2.63079 1.90378 3.19182 1.9186 3.52898 2.28419L8.5 7.67435L13.471 2.28419C13.8082 1.9186 14.3692 1.90378 14.7241 2.25109C15.079 2.5984 15.0934 3.17631 14.7562 3.5419L9.72257 9L14.7562 14.4581C15.0934 14.8237 15.079 15.4016 14.7241 15.7489C14.3692 16.0962 13.8082 16.0814 13.471 15.7158L8.5 10.3257L3.52898 15.7158C3.19182 16.0814 2.63079 16.0962 2.27588 15.7489C1.92098 15.4016 1.90659 14.8237 2.24375 14.4581L7.27743 9L2.24375 3.5419C1.90659 3.17631 1.92098 2.5984 2.27588 2.25109Z" fill="white" stroke="#FAFAFA" stroke-width="3" stroke-linecap="round" stroke-linejoin="round"/>
</svg>
