<svg width="18" height="23" viewBox="0 0 18 23" fill="none" xmlns="http://www.w3.org/2000/svg">
<path d="M12.0191 8.00043C11.7335 8.00043 11.502 8.23193 11.502 8.51757V18.2916C11.502 18.577 11.7335 18.8087 12.0191 18.8087C12.3047 18.8087 12.5362 18.577 12.5362 18.2916V8.51757C12.5362 8.23193 12.3047 8.00043 12.0191 8.00043Z" fill="#FAFAFA"/>
<path d="M5.91558 8.00043C5.62994 8.00043 5.39844 8.23193 5.39844 8.51757V18.2916C5.39844 18.577 5.62994 18.8087 5.91558 18.8087C6.20122 18.8087 6.43273 18.577 6.43273 18.2916V8.51757C6.43273 8.23193 6.20122 8.00043 5.91558 8.00043Z" fill="#FAFAFA"/>
<path d="M1.46877 6.57404V19.3153C1.46877 20.0684 1.74491 20.7757 2.22731 21.2831C2.70749 21.792 3.37573 22.0808 4.07508 22.082H13.8596C14.5591 22.0808 15.2274 21.792 15.7074 21.2831C16.1897 20.7757 16.4659 20.0684 16.4659 19.3153V6.57404C17.4248 6.31951 18.0462 5.39309 17.9179 4.40911C17.7895 3.42533 16.9513 2.68941 15.9591 2.68921H13.3113V2.04278C13.3144 1.49917 13.0994 0.977184 12.7146 0.593166C12.3298 0.209349 11.807 -0.00437624 11.2634 6.79483e-05H6.6713C6.12769 -0.00437624 5.6049 0.209349 5.22007 0.593166C4.83524 0.977184 4.62031 1.49917 4.62334 2.04278V2.68921H1.97561C0.983341 2.68941 0.145207 3.42533 0.0167298 4.40911C-0.111546 5.39309 0.509833 6.31951 1.46877 6.57404ZM13.8596 21.0478H4.07508C3.19089 21.0478 2.50305 20.2882 2.50305 19.3153V6.61949H15.4316V19.3153C15.4316 20.2882 14.7438 21.0478 13.8596 21.0478ZM5.65762 2.04278C5.65419 1.7735 5.76004 1.51433 5.95114 1.32423C6.14204 1.13414 6.40182 1.02971 6.6713 1.03435H11.2634C11.5328 1.02971 11.7926 1.13414 11.9835 1.32423C12.1746 1.51412 12.2805 1.7735 12.277 2.04278V2.68921H5.65762V2.04278ZM1.97561 3.72349H15.9591C16.4732 3.72349 16.8899 4.14024 16.8899 4.65435C16.8899 5.16846 16.4732 5.5852 15.9591 5.5852H1.97561C1.4615 5.5852 1.04475 5.16846 1.04475 4.65435C1.04475 4.14024 1.4615 3.72349 1.97561 3.72349Z" fill="#FAFAFA"/>
<path d="M8.96636 8.00043C8.68072 8.00043 8.44922 8.23193 8.44922 8.51757V18.2916C8.44922 18.577 8.68072 18.8087 8.96636 18.8087C9.252 18.8087 9.48351 18.577 9.48351 18.2916V8.51757C9.48351 8.23193 9.252 8.00043 8.96636 8.00043Z" fill="#FAFAFA"/>
</svg>
