<svg width="123" height="53" viewBox="0 0 123 53" fill="none" xmlns="http://www.w3.org/2000/svg">
<g clip-path="url(#clip0)">
<path d="M33.8141 0H21.0885C15.4658 0.263574 10.8696 2.50787 9.54244 7.13622C8.85058 9.55022 8.46975 12.2009 7.9285 14.7033C5.17784 27.4264 2.73847 40.4996 0.107239 52.9684H99.1787C106.838 52.9684 112.097 51.3644 113.518 45.3402C114.178 42.5414 114.811 39.3714 115.442 36.2967C117.905 24.3082 120.369 12.3202 122.891 0H33.8141Z" fill="#B82126"/>
<path d="M84.9311 31.6403C83.557 32.9733 79.7001 33.352 80.0948 30.1655C80.4224 27.5189 83.3299 26.9565 86.481 27.3387C86.2467 28.7863 85.9781 30.6245 84.9311 31.6405V31.6403ZM80.5905 21.3167C80.4596 22.0468 80.2581 22.7075 80.0948 23.4058C81.668 23.015 86.5674 21.8165 87.0393 23.8975C87.1961 24.5891 86.9256 25.3235 86.7292 25.864C82.2989 25.4481 78.6881 26.1777 77.7386 29.3052C77.1024 31.4 77.8099 33.4615 79.1648 34.0372C81.7742 35.1447 84.9484 33.8755 86.0472 32.132C85.9331 32.7357 85.8249 33.3453 85.8611 34.0985H88.1552C88.1796 31.921 88.4993 30.1584 88.8372 28.1991C89.1254 26.5306 89.6674 24.8786 89.5811 23.406C89.3844 20.0335 83.7464 21.2264 80.5905 21.3169V21.3167ZM103.594 32.6848C101.799 32.7228 100.907 31.6222 100.866 29.7969C100.794 26.6003 102.209 23.0486 105.082 22.7301C106.42 22.5818 107.388 22.89 108.369 23.2218C107.469 26.8125 107.794 32.5955 103.594 32.6848ZM109.546 15.7864C109.318 17.7719 109.013 19.6815 108.617 21.5009C102.077 19.4496 98.0659 24.2181 98.1378 30.104C98.152 31.2424 98.3496 32.3713 99.0681 33.1763C100.306 34.5643 103.851 34.8961 105.64 33.7296C105.987 33.5038 106.341 33.0931 106.571 32.8079C106.743 32.5933 107.017 32.0317 107.066 32.1931C106.973 32.817 106.832 33.3947 106.819 34.0985H109.237C109.703 27.473 111.144 21.8139 112.213 15.7861H109.547L109.546 15.7864ZM41.2804 31.7018C39.8537 33.1991 36.3469 33.1761 36.0721 30.657C35.9522 29.5609 36.3644 28.4115 36.568 27.2774C36.7743 26.1295 36.9225 25.0281 37.1258 24.0204C38.5309 22.3201 42.6595 22.115 43.0785 24.9423C43.442 27.3969 42.4617 30.4619 41.2804 31.7018ZM43.3886 21.3167C41.1319 20.4768 38.3815 21.4795 37.1894 22.4335C37.1935 22.4753 37.1611 22.481 37.1258 22.4843C37.1462 22.4672 37.1683 22.4503 37.1894 22.4335C37.1893 22.43 37.1888 22.4265 37.188 22.423C37.2081 22.0126 37.3539 21.7269 37.3741 21.3167H35.08C34.1239 27.6203 32.9903 33.7477 31.7936 39.813H34.4598C34.8457 37.4505 35.1006 34.9588 35.638 32.7464C36.2469 35.0731 40.2225 34.6287 41.9003 33.7296C45.362 31.8746 48.0321 23.0455 43.3886 21.3167ZM56.0372 25.7411H49.775C49.9731 24.3144 51.2683 22.746 53.3091 22.6688C55.2298 22.5958 56.6049 23.3675 56.0372 25.7411ZM53.4952 21.0709C51.5686 21.218 49.9402 21.7673 48.7829 22.9758C47.3632 24.4579 46.2138 27.7347 46.5505 30.7186C47.0311 34.9757 52.3794 34.8231 56.6574 33.7909C56.7301 33.0439 56.9126 32.4053 57.0294 31.7018C55.267 32.3554 52.2074 33.2676 50.3949 32.132C49.0266 31.2745 49.0184 29.1029 49.4649 27.2158C52.3401 27.1253 55.3284 27.1426 58.2073 27.2158C58.3901 25.8782 58.9128 24.4199 58.4553 23.0989C57.8522 21.3547 55.6926 20.9034 53.4952 21.0709ZM30.0576 21.3167C29.9854 21.3271 29.9902 21.4141 29.9952 21.5009C29.4079 25.8552 28.613 30.0039 27.7633 34.0985H30.4295C31.0701 29.7147 31.8039 25.4238 32.7236 21.3167H30.0576ZM99.6264 21.378C97.27 20.2106 95.3083 22.1697 94.5423 23.3445C94.7603 22.7417 94.7726 21.9348 94.9759 21.3167H92.6198C91.9847 25.7057 91.2185 29.9649 90.3257 34.0985H93.0538C93.0711 32.4044 93.4068 31.1514 93.6737 29.4896C94.244 25.9422 95.0809 22.052 99.2542 23.2218C99.3928 22.6217 99.4503 21.9413 99.6264 21.378ZM69.678 31.0872C69.4325 30.4581 69.3687 29.4188 69.4301 28.6292C69.568 26.8534 70.2207 24.6918 71.2282 23.7133C72.6186 22.3627 75.3635 22.5861 77.5526 23.3445C77.6207 22.6132 77.7689 21.961 77.8629 21.2554C74.2721 20.6743 70.8649 21.0357 69.0581 22.9143C67.2897 24.7536 66.1303 28.9805 66.9499 31.6403C67.9092 34.7525 72.21 34.9218 75.6928 33.7296C75.8468 33.1041 75.9283 32.4067 76.0647 31.7631C74.1618 32.743 70.5239 33.2524 69.678 31.0872ZM68.1902 21.3167C65.8259 20.3705 63.9676 21.9695 63.1062 23.4676C63.3012 22.8011 63.382 22.0206 63.5398 21.3167H61.1836C60.6076 25.744 59.7587 29.9005 58.9515 34.0985H61.6179C61.9916 31.6065 62.1527 28.2476 62.9818 25.864C63.6444 23.9593 65.3782 22.3365 67.8802 23.2218C67.9152 22.519 68.1183 21.9826 68.1902 21.3167ZM25.2211 16.155C24.8402 18.6042 24.4112 21.0058 23.981 23.406C21.2188 23.4348 18.3986 23.5412 15.7345 23.3442C16.2377 20.9963 16.5986 18.5067 17.0984 16.1548H14.1223C13.0568 22.1457 12.0879 28.2314 10.8985 34.0987H13.9364C14.4132 31.0886 14.8587 28.0482 15.4863 25.1885C18.077 25.1251 21.1819 25.015 23.6711 25.2498C23.1579 28.2233 22.5375 31.0905 22.0591 34.0987H25.0973C26.0733 28.0199 27.1021 21.9931 28.3216 16.1552H25.2213L25.2211 16.155ZM32.7855 18.8587C33.3171 18.496 34.0016 16.843 33.2195 16.155C32.9718 15.9371 32.5574 15.8738 31.9797 15.9708C31.4432 16.0604 31.1348 16.2408 30.9255 16.5236C30.5883 16.9783 30.2797 18.3494 30.8013 18.8587C31.3092 19.3547 32.4473 19.0892 32.7855 18.8587Z" fill="white"/>
</g>
<defs>
<clipPath id="clip0">
<rect width="123" height="53" fill="white"/>
</clipPath>
</defs>
</svg>
