<svg width="100" height="60" viewBox="0 0 100 60" fill="none" xmlns="http://www.w3.org/2000/svg">
<path d="M100 30C100 46.5079 86.6667 59.9999 70 59.9999C53.4921 59.9999 40 46.5079 40 30C40 13.492 53.3334 0 69.8413 0C86.6667 0 100 13.492 100 30Z" fill="#FFB600"/>
<path d="M70 0C86.5079 0 100 13.492 100 30C100 46.5079 86.6667 59.9999 70 59.9999C53.4921 59.9999 40 46.5079 40 30" fill="#F7981D"/>
<path d="M70 0C86.5079 0 100 13.492 100 30C100 46.5079 86.6666 59.9999 70 59.9999" fill="#FF8500"/>
<path d="M29.6825 0C13.3333 0.15873 0 13.492 0 30C0 46.5079 13.3333 59.9999 30 59.9999C37.7778 59.9999 44.7619 56.984 50.1587 52.2221C51.2698 51.2698 52.2222 50.1586 53.1746 49.0475H46.9841C46.1905 48.0952 45.3968 46.984 44.7619 46.0317H55.3968C56.0317 45.0793 56.6667 43.9682 57.1428 42.8571H43.0159C42.5397 41.9047 42.0635 40.7936 41.746 39.6825H58.254C59.2063 36.6666 59.8413 33.492 59.8413 30.1587C59.8413 27.9365 59.5238 25.873 59.2063 23.8095H40.7936C40.9524 22.6984 41.2698 21.746 41.5873 20.6349H58.0952C57.7778 19.5238 57.3016 18.4127 56.8254 17.4603H42.8571C43.3333 16.3492 43.9682 15.3968 44.6032 14.2857H55.2381C54.6032 13.1746 53.8095 12.0635 52.8571 11.1111H46.9841C47.9365 9.99998 48.8889 9.0476 50 8.09523C44.7619 3.1746 37.619 0.317459 29.8413 0.317459C29.8413 -3.07484e-07 29.8413 0 29.6825 0Z" fill="#FF5050"/>
<path d="M0 30.0001C0 46.508 13.3333 60.0001 30 60.0001C37.7778 60.0001 44.7619 56.9842 50.1587 52.2223C51.2698 51.2699 52.2222 50.1588 53.1746 49.0477H46.9841C46.1905 48.0953 45.3968 46.9842 44.7619 46.0318H55.3968C56.0317 45.0794 56.6667 43.9683 57.1428 42.8572H43.0159C42.5397 41.9049 42.0635 40.7937 41.746 39.6826H58.254C59.2063 36.6668 59.8413 33.4922 59.8413 30.1588C59.8413 27.9366 59.5238 25.8731 59.2063 23.8096H40.7936C40.9524 22.6985 41.2698 21.7462 41.5873 20.635H58.0952C57.7778 19.5239 57.3016 18.4128 56.8254 17.4605H42.8571C43.3333 16.3493 43.9682 15.397 44.6032 14.2859H55.2381C54.6032 13.1747 53.8095 12.0636 52.8571 11.1113H46.9841C47.9365 10.0001 48.8889 9.04777 50 8.09539C44.7619 3.17477 37.619 0.317627 29.8413 0.317627H29.6825" fill="#E52836"/>
<path d="M30 60.0001C37.7778 60.0001 44.7619 56.9842 50.1587 52.2223C51.2699 51.2699 52.2222 50.1588 53.1746 49.0477H46.9841C46.1905 48.0953 45.3968 46.9842 44.7619 46.0318H55.3968C56.0318 45.0794 56.6667 43.9683 57.1429 42.8572H43.0159C42.5397 41.9049 42.0635 40.7937 41.746 39.6826H58.254C59.2064 36.6668 59.8413 33.4922 59.8413 30.1588C59.8413 27.9366 59.5238 25.8731 59.2064 23.8096H40.7937C40.9524 22.6985 41.2699 21.7462 41.5873 20.635H58.0952C57.7778 19.5239 57.3016 18.4128 56.8254 17.4605H42.8572C43.3333 16.3493 43.9683 15.397 44.6032 14.2859H55.2381C54.6032 13.1747 53.8095 12.0636 52.8572 11.1113H46.9841C47.9365 10.0001 48.8889 9.04777 50 8.09539C44.7619 3.17477 37.6191 0.317627 29.8413 0.317627H29.6826" fill="#CB2026"/>
<path d="M40.6349 37.6189L41.1111 34.9205C40.9523 34.9205 40.6349 35.0792 40.3174 35.0792C39.2063 35.0792 39.0476 34.4443 39.2063 34.1268L40.1587 28.5713H41.9047L42.3809 25.5554H40.7936L41.1111 23.6506H37.9365C37.9365 23.6506 36.0317 34.1268 36.0317 35.3966C36.0317 37.3014 37.1428 38.0951 38.5714 38.0951C39.5238 38.0951 40.3174 37.7776 40.6349 37.6189Z" fill="white"/>
<path d="M41.746 32.5394C41.746 36.9838 44.7619 38.0949 47.3016 38.0949C49.6825 38.0949 50.6349 37.6188 50.6349 37.6188L51.2698 34.6029C51.2698 34.6029 49.5238 35.3965 47.9365 35.3965C44.4444 35.3965 45.0793 32.8569 45.0793 32.8569H51.5873C51.5873 32.8569 52.0635 30.7934 52.0635 29.9997C52.0635 27.9362 50.9524 25.3966 47.4603 25.3966C44.127 25.0791 41.746 28.5711 41.746 32.5394ZM47.3016 27.9362C49.0476 27.9362 48.7301 29.9997 48.7301 30.1585H45.2381C45.2381 29.9997 45.5555 27.9362 47.3016 27.9362Z" fill="white"/>
<path d="M67.4603 37.6187L68.0952 34.1267C68.0952 34.1267 66.5079 34.9203 65.3968 34.9203C63.1746 34.9203 62.2222 33.1743 62.2222 31.2695C62.2222 27.46 64.127 25.3965 66.3492 25.3965C67.9365 25.3965 69.2063 26.3489 69.2063 26.3489L69.6825 23.0156C69.6825 23.0156 67.7778 22.2219 66.0317 22.2219C62.3809 22.2219 58.7301 25.3965 58.7301 31.4283C58.7301 35.3965 60.6349 38.0949 64.4444 38.0949C65.7143 38.0949 67.4603 37.6187 67.4603 37.6187Z" fill="white"/>
<path d="M23.1746 25.0791C20.9523 25.0791 19.365 25.714 19.365 25.714L18.8889 28.4124C18.8889 28.4124 20.3174 27.7775 22.3809 27.7775C23.492 27.7775 24.4444 27.9362 24.4444 28.8886C24.4444 29.5235 24.2857 29.6823 24.2857 29.6823C24.2857 29.6823 23.3333 29.6823 22.8571 29.6823C20.1587 29.6823 17.1428 30.7934 17.1428 34.4442C17.1428 37.3013 19.0476 37.9362 20.1587 37.9362C22.3809 37.9362 23.3333 36.5076 23.492 36.5076L23.3333 37.7775H26.1904L27.4603 29.0473C27.4603 25.2378 24.2857 25.0791 23.1746 25.0791ZM23.8095 32.2219C23.8095 32.6981 23.492 35.2378 21.5873 35.2378C20.6349 35.2378 20.3174 34.4442 20.3174 33.968C20.3174 33.1743 20.7936 32.0632 23.1746 32.0632C23.6508 32.2219 23.8095 32.2219 23.8095 32.2219Z" fill="white"/>
<path d="M30.4762 37.9363C31.2698 37.9363 35.2381 38.095 35.2381 33.8093C35.2381 29.841 31.4286 30.6347 31.4286 29.0474C31.4286 28.2537 32.0635 27.9363 33.1746 27.9363C33.6508 27.9363 35.3968 28.095 35.3968 28.095L35.873 25.2379C35.873 25.2379 34.7619 24.9204 32.8571 24.9204C30.4762 24.9204 28.0952 25.8728 28.0952 29.0474C28.0952 32.6982 32.0635 32.3807 32.0635 33.8093C32.0635 34.7617 30.9524 34.9204 30.1587 34.9204C28.7301 34.9204 27.3016 34.4442 27.3016 34.4442L26.8254 37.3013C26.9841 37.6188 27.7778 37.9363 30.4762 37.9363Z" fill="white"/>
<path d="M93.8095 22.5393L93.1746 26.825C93.1746 26.825 91.9047 25.2377 90.1587 25.2377C87.3015 25.2377 84.7619 28.7298 84.7619 32.8567C84.7619 35.3964 86.0317 38.0948 88.7301 38.0948C90.6349 38.0948 91.746 36.825 91.746 36.825L91.5873 37.9361H94.7619L97.1428 22.698L93.8095 22.5393ZM92.3809 30.952C92.3809 32.698 91.5873 34.9202 89.8412 34.9202C88.7301 34.9202 88.0952 33.9679 88.0952 32.3806C88.0952 29.8409 89.2063 28.2536 90.6349 28.2536C91.746 28.2536 92.3809 29.0472 92.3809 30.952Z" fill="white"/>
<path d="M5.87299 37.7774L7.77775 26.3488L8.09521 37.7774H10.3174L14.4444 26.3488L12.6984 37.7774H16.0317L18.5714 22.5393H13.3333L10.1587 31.9044L9.99997 22.5393H5.3968L2.85712 37.7774H5.87299Z" fill="white"/>
<path d="M55.0793 37.7774C56.0317 32.5393 56.1905 28.2536 58.4127 29.0473C58.7301 26.9838 59.2063 26.1901 59.5238 25.3965C59.5238 25.3965 59.3651 25.3965 58.8889 25.3965C57.4603 25.3965 56.3492 27.3012 56.3492 27.3012L56.6666 25.5552H53.6508L51.5873 37.9361H55.0793V37.7774Z" fill="white"/>
<path d="M74.7619 25.0791C72.5397 25.0791 70.9524 25.714 70.9524 25.714L70.4762 28.4124C70.4762 28.4124 71.9047 27.7775 73.9682 27.7775C75.0793 27.7775 76.0317 27.9362 76.0317 28.8886C76.0317 29.5235 75.873 29.6823 75.873 29.6823C75.873 29.6823 74.9206 29.6823 74.4444 29.6823C71.746 29.6823 68.7301 30.7934 68.7301 34.4442C68.7301 37.3013 70.6349 37.9362 71.746 37.9362C73.9682 37.9362 74.9206 36.5076 75.0793 36.5076L74.9206 37.7775H77.7778L79.0476 29.0473C79.2063 25.2378 75.873 25.0791 74.7619 25.0791ZM75.5555 32.2219C75.5555 32.6981 75.2381 35.2378 73.3333 35.2378C72.3809 35.2378 72.0635 34.4442 72.0635 33.968C72.0635 33.1743 72.5397 32.0632 74.9206 32.0632C75.3968 32.2219 75.3968 32.2219 75.5555 32.2219Z" fill="white"/>
<path d="M81.746 37.7774C82.6984 32.5393 82.8571 28.2536 85.0793 29.0473C85.3968 26.9838 85.873 26.1901 86.1904 25.3965C86.1904 25.3965 86.0317 25.3965 85.5555 25.3965C84.127 25.3965 83.0158 27.3012 83.0158 27.3012L83.3333 25.5552H80.3174L78.2539 37.9361H81.746V37.7774Z" fill="white"/>
<path d="M35.7143 35.3966C35.7143 37.3014 36.8254 38.0951 38.2539 38.0951C39.3651 38.0951 40.3174 37.7776 40.6349 37.6189L41.1111 34.9205C40.9524 34.9205 40.6349 35.0792 40.3174 35.0792C39.2063 35.0792 39.0476 34.4443 39.2063 34.1268L40.1587 28.5713H41.9047L42.3809 25.5554H40.7936L41.1111 23.6506" fill="#DCE5E5"/>
<path d="M43.3333 32.5394C43.3333 36.9838 44.7619 38.0949 47.3015 38.0949C49.6825 38.0949 50.6349 37.6188 50.6349 37.6188L51.2698 34.6029C51.2698 34.6029 49.5238 35.3965 47.9365 35.3965C44.4444 35.3965 45.0793 32.8569 45.0793 32.8569H51.5873C51.5873 32.8569 52.0634 30.7934 52.0634 29.9997C52.0634 27.9362 50.9523 25.3966 47.4603 25.3966C44.1269 25.0791 43.3333 28.5711 43.3333 32.5394ZM47.3015 27.9362C49.0476 27.9362 49.365 29.9997 49.365 30.1585H45.238C45.238 29.9997 45.5555 27.9362 47.3015 27.9362Z" fill="#DCE5E5"/>
<path d="M67.4603 37.6187L68.0952 34.1267C68.0952 34.1267 66.5079 34.9203 65.3968 34.9203C63.1746 34.9203 62.2222 33.1743 62.2222 31.2695C62.2222 27.46 64.127 25.3965 66.3492 25.3965C67.9365 25.3965 69.2063 26.3489 69.2063 26.3489L69.6825 23.0156C69.6825 23.0156 67.7778 22.2219 66.0317 22.2219C62.3809 22.2219 60.3174 25.3965 60.3174 31.4283C60.3174 35.3965 60.6349 38.0949 64.4444 38.0949C65.7143 38.0949 67.4603 37.6187 67.4603 37.6187Z" fill="#DCE5E5"/>
<path d="M18.8889 28.5711C18.8889 28.5711 20.3174 27.9362 22.3809 27.9362C23.492 27.9362 24.4444 28.0949 24.4444 29.0473C24.4444 29.6822 24.2857 29.8409 24.2857 29.8409C24.2857 29.8409 23.3333 29.8409 22.8571 29.8409C20.1587 29.8409 17.1428 30.952 17.1428 34.6028C17.1428 37.4599 19.0476 38.0949 20.1587 38.0949C22.3809 38.0949 23.3333 36.6663 23.492 36.6663L23.3333 37.9361H26.1904L27.4603 29.206C27.4603 25.5552 24.2857 25.3965 23.0158 25.3965L18.8889 28.5711ZM25.3968 32.2219C25.3968 32.6981 23.492 35.2377 21.5873 35.2377C20.6349 35.2377 20.3174 34.4441 20.3174 33.9679C20.3174 33.1742 20.7936 32.0631 23.1746 32.0631C23.6508 32.2219 25.3968 32.2219 25.3968 32.2219Z" fill="#DCE5E5"/>
<path d="M26.9841 37.6188C26.9841 37.6188 27.9365 37.9363 30.6349 37.9363C31.4285 37.9363 35.3968 38.095 35.3968 33.8093C35.3968 29.841 31.5873 30.6347 31.5873 29.0474C31.5873 28.2537 32.2222 27.9363 33.3333 27.9363C33.8095 27.9363 35.5555 28.095 35.5555 28.095L36.0317 25.2379C36.0317 25.2379 34.9206 24.9204 33.0158 24.9204C30.6349 24.9204 29.8412 25.8728 29.8412 29.0474C29.8412 32.6982 32.2222 32.3807 32.2222 33.8093C32.2222 34.7617 31.1111 34.9204 30.3174 34.9204" fill="#DCE5E5"/>
<path d="M93.1746 26.8252C93.1746 26.8252 91.9047 25.2379 90.1587 25.2379C87.3015 25.2379 86.3492 28.73 86.3492 32.8569C86.3492 35.3966 86.0317 38.095 88.7301 38.095C90.6349 38.095 91.746 36.8252 91.746 36.8252L91.5873 37.9363H94.7619L97.1428 22.6982L93.1746 26.8252ZM93.0158 30.9522C93.0158 32.6982 91.5873 34.9204 89.8412 34.9204C88.7301 34.9204 88.0952 33.9681 88.0952 32.3808C88.0952 29.8411 89.2063 28.2538 90.6349 28.2538C91.746 28.2538 93.0158 29.0474 93.0158 30.9522Z" fill="#DCE5E5"/>
<path d="M5.87299 37.7774L7.77775 26.3488L8.09521 37.7774H10.3174L14.4444 26.3488L12.6984 37.7774H16.0317L18.5714 22.5393H14.6031L10.1587 31.9044L9.99997 22.5393H8.25394L2.85712 37.7774H5.87299Z" fill="#DCE5E5"/>
<path d="M51.746 37.7774H55.0793C56.0317 32.5393 56.1904 28.2536 58.4126 29.0473C58.7301 26.9838 59.2063 26.1901 59.5238 25.3965C59.5238 25.3965 59.365 25.3965 58.8888 25.3965C57.4603 25.3965 56.3492 27.3012 56.3492 27.3012L56.6666 25.5552" fill="#DCE5E5"/>
<path d="M70.4762 28.5711C70.4762 28.5711 71.9047 27.9362 73.9682 27.9362C75.0793 27.9362 76.0317 28.0949 76.0317 29.0473C76.0317 29.6822 75.873 29.8409 75.873 29.8409C75.873 29.8409 74.9206 29.8409 74.4444 29.8409C71.746 29.8409 68.7301 30.952 68.7301 34.6028C68.7301 37.4599 70.6349 38.0949 71.746 38.0949C73.9682 38.0949 74.9206 36.6663 75.0793 36.6663L74.9206 37.9361H77.7778L79.0476 29.206C79.0476 25.5552 75.873 25.3965 74.6031 25.3965L70.4762 28.5711ZM76.9841 32.2219C76.9841 32.6981 75.0793 35.2377 73.1746 35.2377C72.2222 35.2377 71.9047 34.4441 71.9047 33.9679C71.9047 33.1742 72.3809 32.0631 74.7619 32.0631C75.3968 32.2219 76.9841 32.2219 76.9841 32.2219Z" fill="#DCE5E5"/>
<path d="M78.4127 37.7774H81.746C82.6984 32.5393 82.8571 28.2536 85.0793 29.0473C85.3968 26.9838 85.873 26.1901 86.1904 25.3965C86.1904 25.3965 86.0317 25.3965 85.5555 25.3965C84.1269 25.3965 83.0158 27.3012 83.0158 27.3012L83.3333 25.5552" fill="#DCE5E5"/>
</svg>
