<svg width="37" height="36" viewBox="0 0 37 36" fill="none" xmlns="http://www.w3.org/2000/svg">
<path d="M29.9651 23.014C27.7095 23.014 25.6982 23.9787 24.4117 25.4698L13.6388 20.0684C13.8912 19.4179 14.0296 18.7163 14.0296 17.9927C14.0296 17.2618 13.8912 16.5674 13.6306 15.9096L24.3954 10.5156C25.6738 12.014 27.6932 12.986 29.9569 12.986C33.8166 12.986 36.9679 10.1648 36.9679 6.69302C36.9679 3.22126 33.8247 0.400002 29.9569 0.400002C26.0891 0.400002 22.946 3.22126 22.946 6.69302C22.946 7.42392 23.0844 8.12558 23.345 8.77608L12.5883 14.1701C11.3099 12.6645 9.29051 11.6997 7.02681 11.6997C3.16713 11.6997 0.0158691 14.5209 0.0158691 17.9927C0.0158691 21.4645 3.16713 24.2857 7.03496 24.2857C9.29865 24.2857 11.3181 23.3136 12.6046 21.808L23.3694 27.2093C23.1088 27.8671 22.9623 28.5761 22.9623 29.307C22.9623 32.7714 26.1054 35.6 29.9732 35.6C33.841 35.6 36.9841 32.7787 36.9841 29.307C36.9841 25.8352 33.8329 23.014 29.9651 23.014ZM29.9651 2.38073C32.6196 2.38073 34.7775 4.31761 34.7775 6.70033C34.7775 9.08306 32.6196 11.0199 29.9651 11.0199C27.3105 11.0199 25.1527 9.08306 25.1527 6.70033C25.1527 4.31761 27.3187 2.38073 29.9651 2.38073ZM7.03496 22.3123C4.38041 22.3123 2.22257 20.3754 2.22257 17.9927C2.22257 15.61 4.38041 13.6731 7.03496 13.6731C9.68951 13.6731 11.8473 15.61 11.8473 17.9927C11.8473 20.3754 9.68136 22.3123 7.03496 22.3123ZM29.9651 33.6193C27.3105 33.6193 25.1527 31.6824 25.1527 29.2997C25.1527 26.9169 27.3105 24.9801 29.9651 24.9801C32.6196 24.9801 34.7775 26.9169 34.7775 29.2997C34.7775 31.6824 32.6196 33.6193 29.9651 33.6193Z" fill="#B9B6B6"/>
</svg>
