<svg width="114" height="35" viewBox="0 0 114 35" fill="none" xmlns="http://www.w3.org/2000/svg">
<path d="M41.8 33.6574L47.5905 1.08594H56.6381L51.0286 33.6574H41.8Z" fill="#3C58BF"/>
<path d="M41.8 33.6574L49.2191 1.08594H56.6381L51.0286 33.6574H41.8Z" fill="#293688"/>
<path d="M83.7809 1.44762C81.9714 0.723808 79.0762 0 75.4571 0C66.4095 0 59.8952 4.52381 59.8952 11.0381C59.8952 15.9238 64.419 18.4571 68.0381 20.0857C71.6571 21.7143 72.7428 22.8 72.7428 24.2476C72.7428 26.419 69.8476 27.5048 67.3143 27.5048C63.6952 27.5048 61.7047 26.9619 58.6286 25.6952L57.3619 25.1524L56.0952 32.5714C58.2666 33.4762 62.2476 34.381 66.4095 34.381C76 34.381 82.3333 29.8571 82.3333 22.981C82.3333 19.181 79.9809 16.2857 74.5524 13.9333C71.2952 12.3048 69.3047 11.4 69.3047 9.77143C69.3047 8.32381 70.9333 6.87619 74.5524 6.87619C77.6286 6.87619 79.8 7.41905 81.4286 8.14286L82.3333 8.50476L83.7809 1.44762Z" fill="#3C58BF"/>
<path d="M83.7809 1.44762C81.9714 0.723808 79.0762 0 75.4571 0C66.4095 0 61.5238 4.52381 61.5238 11.0381C61.5238 15.9238 64.419 18.4571 68.0381 20.0857C71.6571 21.7143 72.7428 22.8 72.7428 24.2476C72.7428 26.419 69.8476 27.5048 67.3143 27.5048C63.6952 27.5048 61.7047 26.9619 58.6286 25.6952L57.3619 25.1524L56.0952 32.5714C58.2666 33.4762 62.2476 34.381 66.4095 34.381C76 34.381 82.3333 29.8571 82.3333 22.981C82.3333 19.181 79.9809 16.2857 74.5524 13.9333C71.2952 12.3048 69.3047 11.4 69.3047 9.77143C69.3047 8.32381 70.9333 6.87619 74.5524 6.87619C77.6286 6.87619 79.8 7.41905 81.4286 8.14286L82.3333 8.50476L83.7809 1.44762Z" fill="#293688"/>
<path d="M99.3428 1.08594C97.1714 1.08594 95.5428 1.26689 94.6381 3.43832L81.0667 33.6574H90.8381L92.6476 28.2288H104.229L105.314 33.6574H114L106.4 1.08594H99.3428ZM95.1809 22.8002C95.7238 21.1716 98.8 13.2097 98.8 13.2097C98.8 13.2097 99.5238 11.2193 100.067 9.95261L100.609 13.0288C100.609 13.0288 102.419 21.1717 102.781 22.9812H95.1809V22.8002Z" fill="#3C58BF"/>
<path d="M101.514 1.08594C99.3428 1.08594 97.7143 1.26689 96.8095 3.43832L81.0667 33.6574H90.8381L92.6476 28.2288H104.229L105.314 33.6574H114L106.4 1.08594H101.514ZM95.1809 22.8002C95.9047 20.9907 98.8 13.2097 98.8 13.2097C98.8 13.2097 99.5238 11.2193 100.067 9.95261L100.609 13.0288C100.609 13.0288 102.419 21.1717 102.781 22.9812H95.1809V22.8002Z" fill="#293688"/>
<path d="M25.1524 23.8859L24.2476 19.1811C22.619 13.7526 17.3714 7.78113 11.5809 4.88589L19.7238 33.8383H29.4952L44.1524 1.26685H34.3809L25.1524 23.8859Z" fill="#3C58BF"/>
<path d="M25.1524 23.8859L24.2476 19.1811C22.619 13.7526 17.3714 7.78113 11.5809 4.88589L19.7238 33.8383H29.4952L44.1524 1.26685H36.1905L25.1524 23.8859Z" fill="#293688"/>
<path d="M0 1.08594L1.62857 1.44784C13.2095 4.16213 21.1714 11.0383 24.2476 19.1812L20.9905 3.80022C20.4476 1.62879 18.819 1.08594 16.8286 1.08594H0Z" fill="#FFBC00"/>
<path d="M0 1.08594C11.581 3.80022 21.1714 10.8574 24.2476 19.0002L21.1714 6.15261C20.6286 3.98118 18.819 2.71451 16.8286 2.71451L0 1.08594Z" fill="#F7981D"/>
<path d="M0 1.08594C11.581 3.80022 21.1714 10.8574 24.2476 19.0002L22.0762 11.9431C21.5333 9.77165 20.8095 7.60022 18.2762 6.69546L0 1.08594Z" fill="#ED7C00"/>
<path d="M34.2 22.8001L28.0476 16.6477L25.1524 23.5239L24.4286 19.0001C22.8 13.5715 17.5524 7.60007 11.7619 4.70483L19.9048 33.6572H29.6762L34.2 22.8001Z" fill="#051244"/>
<path d="M51.0286 33.6572L43.2476 25.6953L41.8 33.6572H51.0286Z" fill="#051244"/>
<path d="M71.8381 22.4382C72.5619 23.162 72.9238 23.7049 72.7428 24.4287C72.7428 26.6001 69.8476 27.6859 67.3143 27.6859C63.6952 27.6859 61.7047 27.143 58.6286 25.8763L57.3619 25.3335L56.0952 32.7525C58.2666 33.6573 62.2476 34.562 66.4095 34.562C72.2 34.562 76.9047 32.9335 79.619 30.0382L71.8381 22.4382Z" fill="#051244"/>
<path d="M82.3333 33.6571H90.8381L92.6476 28.2286H104.229L105.314 33.6571H114L110.924 20.4476L100.067 9.95239L100.61 12.8476C100.61 12.8476 102.419 20.9905 102.781 22.8H95.1809C95.9047 20.9905 98.8 13.2095 98.8 13.2095C98.8 13.2095 99.5238 11.2191 100.067 9.95239" fill="#051244"/>
</svg>
