<svg version="1.0" xmlns="http://www.w3.org/2000/svg" width="200px" height="200px" viewBox="0 0 2000 2000" preserveAspectRatio="xMidYMid meet">
<g id="layer101" fill="#333333" stroke="none">
 <path d="M171 1768 c-67 -18 -103 -91 -84 -173 8 -36 698 -1249 774 -1362 80 -117 207 -111 287 14 54 85 745 1287 759 1320 19 46 16 103 -7 140 -39 65 4 62 -888 65 -447 2 -825 0 -841 -4z m442 -160 c9 -7 54 -78 100 -158 46 -80 90 -146 98 -147 8 -2 31 22 52 52 l37 54 -40 81 c-43 86 -43 111 0 125 30 9 44 -6 100 -111 57 -105 58 -97 -12 -191 -42 -58 -43 -62 -25 -87 13 -18 18 -16 90 30 42 27 77 56 77 64 0 24 21 40 54 40 27 0 126 54 126 69 0 3 -9 20 -20 36 -11 17 -20 33 -20 37 0 12 109 48 145 48 18 0 46 -5 60 -10 25 -9 27 -14 20 -48 -8 -45 -43 -108 -79 -141 l-26 -25 -28 33 -27 32 -54 -38 -54 -38 -49 -190 c-27 -104 -52 -193 -56 -197 -9 -9 -314 -128 -328 -128 -20 0 -42 35 -78 125 -40 97 -40 132 -3 139 60 12 74 17 96 35 l25 19 -127 221 c-70 121 -127 227 -127 235 0 13 36 46 50 46 4 0 14 -6 23 -12z m508 -758 c28 -16 52 -68 44 -99 -28 -111 -185 -95 -185 19 0 65 82 111 141 80z"/>
 <path d="M1003 1202 c-24 -15 -43 -30 -43 -34 0 -11 54 -98 61 -98 5 0 39 134 39 153 0 12 -14 8 -57 -21z"/>
 <path d="M777 1054 c-20 -13 -37 -27 -37 -30 0 -4 40 -104 45 -112 1 -1 25 7 53 19 l51 21 -26 47 c-50 87 -45 84 -86 55z"/>
 </g>

</svg>